<svg xmlns="http://www.w3.org/2000/svg" width="28" height="32" fill="none">
  <path fill="#CFDFE2" d="M2.543 0C.685 0 0 .675 0 2.504v22.087c0 .206.01.398.026.574.046.403.05.791.429 1.23.035.05.42.328.42.328.204.101.348.17.582.266l11.283 4.656c.584.263.83.368 1.254.354h.005c.43.014.676-.091 1.26-.354L26.54 26.99c.235-.096.373-.165.583-.266 0 0 .385-.283.42-.328.379-.439.383-.827.429-1.23a6.21 6.21 0 0 0 .027-.573V2.502C27.999.676 27.312 0 25.455 0H2.543Zm18.082 4.147h.921c1.535 0 2.283.736 2.283 2.262v2.506H21.97V6.51c0-.49-.23-.716-.71-.716h-.317c-.497 0-.728.226-.728.716v7.75c0 .488.23.715.727.715h.352c.477 0 .707-.227.707-.715v-2.773h1.863v2.859c0 1.526-.763 2.277-2.303 2.277h-.937c-1.544 0-2.301-.756-2.301-2.277V6.425c0-1.522.756-2.278 2.301-2.278Zm-16.501.101H8.34v1.703H6.017v3.472h2.236v1.698H6.017v3.699H8.37v1.699H4.124V4.248Zm5.168 0h2.973c1.54 0 2.302.756 2.302 2.283v3.26c0 1.526-.763 2.278-2.302 2.278H11.19v4.45H9.292V4.248Zm6.13 0h1.893v12.27h-1.893V4.249Zm-4.237 1.653v4.52h.784c.475 0 .705-.226.705-.72v-3.08c0-.493-.23-.72-.705-.72h-.784ZM5.965 19.44h.282l.062.01h.102l.051.015h.052l.051.015.05.01.046.01.046.01.046.01.052.016.04.01.04.015.052.015.041.02.053.02.046.02.04.027.052.018.035.027.052.024.04.027.046.024.04.03.041.026.041.029.042.03.04.035.041.031-.03.04-.036.036-.03.04-.036.04-.03.036-.031.035-.037.04-.03.04-.03.036-.036.04-.031.04-.037.04-.03.036-.03.04-.036.04-.031.041-.035.035-.031.04-.041-.03-.04-.034-.041-.027-.048-.03-.035-.025-.046-.025-.04-.025-.048-.026-.04-.02-.041-.02-.04-.014-.047-.016-.051-.014-.04-.01-.052-.011-.052-.01-.051-.005H6.19l-.062-.01h-.101l-.052.005h-.051l-.052.015-.046.01-.046.015-.05.015-.04.02-.052.021-.037.024-.04.027-.04.024-.037.03-.036.031-.036.03-.03.035-.04.035-.028.04-.024.036-.031.04-.02.045-.027.04-.025.046-.015.045-.021.045-.014.051-.007.05-.015.046-.01.056v.05l-.01.05v.12l.005.052.005.045.005.05.01.05.016.04.005.051.015.04.016.04.02.052.026.05.02.04.026.04.03.04.031.04.026.037.04.034.032.036.035.03.04.03.041.031.042.025.04.024.047.022.051.02.04.02.052.014.052.016.051.01.05.01.052.006.062.004h.168l.062-.01h.05l.052-.016.051-.009.052-.016.046-.01.046-.02.04-.02.052-.02.03-.02.042-.026v-.463h-.748v-.746H7.71v1.664l-.035.029-.04.03-.037.026-.04.03-.041.025-.04.03-.041.026-.042.025-.052.025-.046.026-.04.025-.052.02-.04.025-.052.02-.051.02-.052.02-.046.02-.046.015-.046.016-.05.015-.046.014-.052.016-.046.01-.051.01-.051.011-.052.01-.05.005-.051.005-.052.005-.06.004-.052.006-.057.005h-.265l-.057-.01h-.052l-.05-.01h-.051l-.052-.016-.051-.01-.052-.01-.05-.01-.04-.015-.052-.01-.051-.016-.046-.02-.046-.014-.052-.02-.046-.02-.051-.02-.04-.022-.052-.024-.036-.026-.051-.024-.037-.027-.04-.024-.04-.03-.041-.031-.046-.03-.032-.03-.04-.031-.037-.035-.035-.03-.037-.035-.03-.036-.036-.035-.03-.04-.03-.036-.027-.04-.03-.04-.026-.04-.025-.04-.027-.046-.024-.04-.02-.046-.02-.045-.022-.045-.02-.046-.016-.04L4.17 22l-.01-.045-.016-.046-.01-.05-.015-.046-.011-.05-.004-.046-.011-.05-.006-.046-.004-.05-.005-.05-.005-.05v-.278l.01-.05v-.055l.014-.05v-.051l.016-.051.016-.05.01-.05.015-.045.016-.051.015-.045.02-.051.02-.045.022-.046.02-.045.02-.045.027-.046.025-.04.025-.04.027-.04.024-.04.031-.041.031-.04.03-.04.037-.036.03-.035.03-.036.041-.034.031-.036.041-.031.037-.035.04-.03.04-.03.041-.026.041-.03.04-.025.043-.025.046-.026.051-.025.04-.024.052-.021.046-.02.052-.026.04-.013.052-.016.046-.02.046-.01.046-.015.051-.011.046-.015.05-.01h.052l.051-.015h.052l.051-.01h.05l.046-.01Zm16.232.01h.28l.063.01h.101l.052.015h.06l.052.016.046.009.052.01.051.01.046.01.052.015.05.016.04.01.052.02.051.016.04.02.052.02.052.02.046.026.036.019.05.027.046.024.041.025.047.03.041.025.04.03.041.031.04.03-.029.04-.026.04-.03.04-.03.04-.032.046-.026.04-.03.04-.03.041-.027.04-.03.04-.031.04-.03.042-.027.045-.03.04-.035.04-.027.04-.03.041-.04-.03-.047-.026-.04-.024-.041-.03-.047-.02-.041-.027-.052-.019-.035-.02-.051-.021-.04-.02-.041-.015-.046-.02-.052-.014-.051-.016-.052-.015-.055-.01-.052-.01-.051-.01-.052-.006-.05-.005-.046-.004h-.113l-.056.009-.051.01-.052.01-.04.021-.036.02-.046.04-.03.046-.021.045v.125l.026.056.02.031.035.035.052.026.04.024.052.02.051.02.066.02.041.011.04.015.052.01.04.015.052.01.057.015.056.015.056.016.057.01.05.015.057.015.052.01.05.015.051.015.052.016.051.015.046.014.052.016.05.02.051.026.052.02.051.025.052.025.04.026.04.024.047.03.036.027.046.035.035.034.041.04.037.036.025.04.036.051.025.035.02.05.026.035.015.05.017.04.009.051.01.051.01.05.006.051.005.05v.126l-.005.055-.006.05-.004.057-.01.05-.015.05-.011.05-.015.051-.02.045-.02.04-.023.046-.024.04-.031.04-.027.04-.024.041-.036.036-.03.035-.037.03-.041.035-.035.03-.04.031-.041.024-.042.031-.052.025-.04.02-.052.027-.051.019-.05.02-.052.016-.051.014-.041.015-.051.01-.052.011-.04.01-.052.01h-.051l-.05.01h-.052l-.051.01h-.38l-.05-.005-.051-.005-.057-.004-.051-.011-.05-.005-.052-.01-.051-.01-.057-.015-.05-.01-.052-.015-.051-.011-.052-.015-.05-.016-.051-.02-.046-.014-.052-.015-.051-.021-.04-.02-.052-.02-.04-.026-.052-.02-.046-.025-.035-.025-.052-.026-.036-.024-.046-.026-.041-.03-.04-.03-.041-.03-.04-.03-.038-.031-.04-.035.03-.04.036-.036.031-.04.036-.04.03-.036.03-.04.037-.04.031-.036.035-.04.031-.034.036-.04.03-.04.03-.036.037-.04.031-.04.036-.036.036-.04.035.029.052.03.035.031.051.03.041.026.046.03.04.025.048.02.04.025.047.02.051.02.04.02.052.015.04.021.052.014.05.016.052.016.051.009.052.01.051.01h.056l.051.016h.282l.051-.01.05-.011.04-.01.041-.014.037-.022.046-.029.027-.036.025-.04.015-.05v-.117l-.02-.049-.03-.04-.032-.03-.046-.031-.036-.02-.05-.02-.052-.02-.06-.027-.037-.01-.041-.01-.052-.013-.04-.011-.052-.016-.051-.01-.055-.015-.052-.01-.057-.016-.05-.009-.051-.016-.052-.01-.051-.015-.052-.014-.05-.01-.046-.016-.046-.015-.046-.016-.051-.02-.057-.02-.052-.02-.05-.02-.051-.025-.052-.026-.035-.025-.051-.025-.037-.03-.046-.026-.03-.03-.036-.034-.04-.036-.032-.035-.03-.036-.027-.035-.024-.04-.027-.045-.02-.036-.015-.04-.015-.045-.015-.04-.011-.051-.01-.045v-.051l-.01-.05v-.217l.005-.05.005-.051.01-.04.01-.05.016-.04.01-.051.02-.04.021-.051.02-.04.026-.05.026-.04.035-.04.027-.04.04-.04.036-.037.031-.04.046-.036.03-.025.046-.03.04-.03.041-.027.052-.024.04-.02.053-.025.04-.02.052-.016.05-.02.052-.015.036-.01.05-.01.04-.01.052-.01.052-.01.051-.006.052-.005.051-.004.046-.01Zm-12.506.035h.957l.02.046.021.045.02.045.015.051.02.045.02.046.023.045.02.045.015.046.025.049.02.045.021.047.01.045.021.046.026.045.02.05.02.045.015.045.02.045.028.046.013.045.022.05.015.051.02.04.027.051.02.04.02.05.016.051.015.04.025.051.02.04.021.05.015.04.022.051.025.051.02.045.015.046.015.045.02.045.028.046.019.049.021.047.014.045.022.045.02.046.02.045.02.05.017.045.02.045.026.045.02.046.02.045.011.05.02.046.026.045.02.046.016.045.02.045.02.051.027.05.014.04.021.051.015.04.02.051.026.05.02.04.015.051.022.04.015.051.026.04.02.05.015.051.02.04.022.051.024.04.022.05.014.05.016.04.02.05.027.04h-1.06l-.027-.043-.014-.046-.021-.045-.02-.05-.015-.046-.02-.045-.021-.046-.016-.045-.02-.045-.02-.046-.016-.045-.02-.05-.02-.046-.017-.045-.02-.046H9.42l-.02.051-.015.04-.02.05-.026.05-.011.04-.02.052-.02.04-.015.05-.02.04-.021.051-.016.04-.02.051-.021.05-.02.04-.015.05h-1.05l.02-.05.021-.045.02-.045.017-.05.013-.046.027-.045.02-.046.021-.045.015-.045.02-.051.027-.045.02-.046.015-.045.015-.045.02-.046.028-.05.019-.046.02-.045.016-.045.02-.046.02-.045.021-.05.02-.051.017-.04.02-.051.026-.04.02-.05.015-.05.015-.04.02-.05.027-.04.02-.051.02-.04.014-.051.022-.05.026-.04.015-.051.02-.04.016-.051.02-.05.026-.04.02-.051.015-.04.02-.051.017-.04.026-.05.02-.051.02-.046.015-.045.02-.045.028-.046.019-.045.01-.05.02-.046.021-.045.026-.046.02-.045.015-.045.022-.051.02-.05.02-.04.02-.05.015-.04.02-.05.021-.051.027-.04.02-.051.015-.04.015-.05.02-.04.028-.051.019-.051.016-.04.02-.05.02-.04.026-.051.015-.051.015-.04.022-.05.04-.04Zm2.968.026h1.05l.029.04.027.045.03.04.026.045.025.04.026.046.024.04.032.046.025.04.026.04.026.046.025.04.036.045.02.04.027.047.03.04.031.04.02.045.03.04.027.045.02.04.036.047.025.04.026.045.026.04.024.04.031.046.026.04.026.046.026.04.025.046.03.04.027.045.024.04.032-.04.02-.05.031-.035.03-.051.027-.035.019-.05.036-.036.026-.05.02-.036.032-.04.03-.05.027-.035.024-.05.026-.037.03-.049.025-.036.027-.05.024-.035.028-.04.03-.051.025-.036.026-.05.03-.035.027-.051.024-.035.031-.04.026-.05.03-.036.027-.05.024-.036.027-.05.03-.035.026-.05.026-.035h1.058v3.718h-.993v-2.186l-.025.034-.031.051-.026.035-.03.04-.027.05-.03.036-.027.04-.03.051-.025.035-.026.04-.035.04-.026.052-.03.034-.027.04-.024.051-.031.035-.026.04-.03.05-.027.036-.03.04-.027.051-.024.035-.031.04-.026.05-.03.036-.03.04-.026.04-.026.051-.031.036-.03.04-.02.05-.037.035-.026.04-.03.051-.027.036h-.018l-.032-.045-.025-.04-.031-.047-.026-.04-.03-.045-.027-.04-.03-.046-.025-.04-.03-.045-.027-.04-.036-.047-.02-.04-.031-.045-.03-.04-.027-.045-.03-.04-.025-.051-.03-.04-.027-.045-.03-.04-.026-.047-.03-.04-.025-.045-.031-.04-.026-.046-.031-.04-.026-.045-.03-.04-.027-.047-.03-.04-.025-.045-.036-.04-.02-.045-.031-.04v2.192h-.982v-3.68l-.005-.044Zm4.698 0h2.977v.84h-1.99v.596h1.79v.79h-1.789v.64h2.016v.842h-2.999V19.54l-.005-.03Zm-7.2 1.138-.02.051-.017.04-.02.05-.02.05-.015.045-.02.046-.022.05-.02.051-.015.04-.02.05-.02.04-.017.051-.02.051-.02.04-.016.05-.02.04-.02.051-.022.051-.013.04-.022.05-.02.051-.015.04-.022.051h.87l-.02-.05-.016-.046-.02-.05-.02-.046-.016-.045-.02-.046-.02-.05-.016-.046-.02-.045-.021-.045-.015-.046-.02-.05-.016-.046-.02-.045-.021-.045-.015-.046-.02-.049-.02-.05-.017-.04-.02-.051-.02-.051-.015-.045-.026-.046ZM8.6 27.613h10.849l-5.538 1.8-5.311-1.8Z"/>
</svg>