<svg width="32" height="32" viewBox="0 0 32 32" fill="none" xmlns="http://www.w3.org/2000/svg">
<path d="M9.53337 20.5394H5.81337C5.67192 20.5394 5.53627 20.5984 5.43625 20.7035C5.33623 20.8086 5.28004 20.9512 5.28004 21.0998V23.9019C5.28004 24.1961 5.52004 24.4623 5.81337 24.4623H9.54671V26.3117H4.88004C4.13337 26.3117 3.52004 25.6672 3.52004 24.8686V20.1191C3.52004 19.3345 4.13337 18.69 4.89337 18.69H9.53337V20.5394ZM10.88 15.3555C10.88 16.1681 10.2534 16.8266 9.48004 16.8266H3.50671V14.9352H8.54671C8.68815 14.9352 8.82381 14.8762 8.92383 14.7711C9.02385 14.666 9.08004 14.5234 9.08004 14.3748V8.14012C9.08004 8.06653 9.06624 7.99365 9.03944 7.92566C9.01264 7.85767 8.97335 7.79589 8.92383 7.74385C8.8743 7.69181 8.81551 7.65053 8.7508 7.62236C8.6861 7.5942 8.61674 7.57971 8.54671 7.57971H5.85337C5.78222 7.57784 5.71143 7.59095 5.64518 7.61828C5.57892 7.6456 5.51854 7.68658 5.4676 7.73881C5.41665 7.79104 5.37617 7.85345 5.34854 7.92238C5.32091 7.9913 5.30668 8.06534 5.30671 8.14012V10.9702C5.30671 11.2925 5.54671 11.5307 5.84004 11.5307H8.00004V13.4221H4.90671C4.13337 13.4221 3.50671 12.7776 3.50671 11.965V7.14538C3.50671 6.34678 4.13337 5.68829 4.90671 5.68829H9.46671C10.24 5.68829 10.8667 6.34678 10.8667 7.14538V15.3555H10.88ZM28.48 26.3117H26.72V20.5394H25.48C25.3386 20.5394 25.2029 20.5984 25.1029 20.7035C25.0029 20.8086 24.9467 20.9512 24.9467 21.0998V26.3117H23.1734V20.5394H21.9334C21.7919 20.5394 21.6563 20.5984 21.5562 20.7035C21.4562 20.8086 21.4 20.9512 21.4 21.0998V26.3117H19.6267V20.1191C19.6267 19.3345 20.24 18.69 21 18.69H28.48V26.3117ZM28.4934 15.3555C28.4934 16.1681 27.8667 16.8266 27.0934 16.8266H21.12V14.9352H26.16C26.3015 14.9352 26.4371 14.8762 26.5372 14.7711C26.6372 14.666 26.6934 14.5234 26.6934 14.3748V8.14012C26.6934 7.99149 26.6372 7.84895 26.5372 7.74385C26.4371 7.63875 26.3015 7.57971 26.16 7.57971H23.4534C23.3833 7.57971 23.314 7.5942 23.2493 7.62236C23.1846 7.65053 23.1258 7.69181 23.0762 7.74385C23.0267 7.79589 22.9874 7.85767 22.9606 7.92566C22.9338 7.99365 22.92 8.06653 22.92 8.14012V10.9702C22.92 11.2925 23.16 11.5307 23.4534 11.5307H25.6134V13.4221H22.5334C21.76 13.4221 21.1334 12.7776 21.1334 11.965V7.14538C21.1334 6.34678 21.76 5.68829 22.5334 5.68829H27.1067C27.88 5.68829 28.5067 6.34678 28.5067 7.14538V15.3555H28.4934ZM18.2934 5.68829H13.7067C12.9334 5.68829 12.32 6.34678 12.32 7.14538V11.965C12.32 12.7776 12.9334 13.4221 13.7067 13.4221H18.2934C19.0534 13.4221 19.68 12.7776 19.68 11.965V7.14538C19.68 6.34678 19.0534 5.68829 18.2934 5.68829ZM17.8934 8.14012V10.9702C17.8934 11.1189 17.8372 11.2614 17.7372 11.3665C17.6371 11.4716 17.5015 11.5307 17.36 11.5307H14.6534C14.5119 11.5307 14.3763 11.4716 14.2762 11.3665C14.1762 11.2614 14.12 11.1189 14.12 10.9702V8.15413C14.12 7.8459 14.3467 7.59372 14.6534 7.59372H17.3334C17.64 7.59372 17.8667 7.8459 17.8667 8.15413L17.8934 8.14012ZM16.84 18.69H12.32C11.56 18.69 10.9467 19.3345 10.9467 20.1191V24.8686C10.9467 25.6672 11.56 26.3117 12.32 26.3117H16.84C17.6 26.3117 18.2134 25.6672 18.2134 24.8686V20.1191C18.2134 19.3345 17.6 18.69 16.84 18.69ZM16.44 21.0998V23.9019C16.44 24.0505 16.3838 24.1931 16.2838 24.2982C16.1838 24.4033 16.0482 24.4623 15.9067 24.4623V24.4483H13.2534C13.1119 24.4483 12.9763 24.3893 12.8762 24.2842C12.7762 24.1791 12.72 24.0365 12.72 23.8879V21.0998C12.72 20.7916 12.96 20.5394 13.2534 20.5394H15.92C16.2134 20.5394 16.4534 20.7916 16.4534 21.0998H16.44ZM31.32 0.728585C31.1042 0.497975 30.8469 0.314795 30.563 0.189717C30.2792 0.0646378 29.9745 0.00016041 29.6667 4.04969e-05H2.33337C2.02646 -0.00181833 1.72225 0.0603312 1.43836 0.182889C1.15446 0.305447 0.896536 0.485977 0.679512 0.714022C0.462489 0.942066 0.290684 1.21309 0.17405 1.5114C0.0574153 1.80971 -0.00173045 2.12937 3.85396e-05 2.45187V29.5481C-0.00173045 29.8706 0.0574153 30.1903 0.17405 30.4886C0.290684 30.7869 0.462489 31.0579 0.679512 31.286C0.896536 31.514 1.15446 31.6946 1.43836 31.8171C1.72225 31.9397 2.02646 32.0018 2.33337 32H29.6667C29.9736 32.0018 30.2778 31.9397 30.5617 31.8171C30.8456 31.6946 31.1035 31.514 31.3206 31.286C31.5376 31.0579 31.7094 30.7869 31.826 30.4886C31.9427 30.1903 32.0018 29.8706 32 29.5481V2.45187C32 1.77937 31.7334 1.16291 31.32 0.714575M31.32 29.5481C31.3218 29.7768 31.2803 30.0035 31.1978 30.2152C31.1153 30.4268 30.9936 30.619 30.8397 30.7807C30.6859 30.9424 30.5029 31.0703 30.3015 31.157C30.1001 31.2436 29.8843 31.2873 29.6667 31.2854H2.33337C2.11464 31.2892 1.89741 31.2469 1.69447 31.1611C1.49152 31.0753 1.30697 30.9477 1.15166 30.7858C0.996356 30.6239 0.873443 30.431 0.790158 30.2185C0.706872 30.0059 0.664898 29.778 0.666705 29.5481V2.45187C0.664929 2.22321 0.70648 1.99646 0.788939 1.78484C0.871398 1.57321 0.993114 1.38095 1.147 1.21926C1.30088 1.05756 1.48385 0.929663 1.68524 0.843016C1.88663 0.75637 2.10242 0.712708 2.32004 0.714575H29.6534C30.0919 0.714575 30.5124 0.897611 30.8225 1.22342C31.1325 1.54922 31.3067 1.99111 31.3067 2.45187V29.5481H31.32Z" fill="#CFDFE2"/>
</svg>
