<svg xmlns="http://www.w3.org/2000/svg" width="32" height="32" fill="none">
  <path fill="#CFDFE2" d="M15.972 0C7.555 0 .653 6.48 0 14.716l8.592 3.544a4.53 4.53 0 0 1 2.554-.787c.084 0 .167.006.25.008l3.823-5.522v-.079c0-3.327 2.708-6.032 6.043-6.032 3.331 0 6.043 2.708 6.043 6.036 0 3.328-2.712 6.033-6.043 6.033h-.14L15.676 21.8c0 .069.005.14.005.212 0 2.5-2.024 4.528-4.528 4.528a4.556 4.556 0 0 1-4.45-3.636L.553 20.36C2.458 27.076 8.634 32 15.972 32 24.824 32 32 24.836 32 16S24.823 0 15.972 0Zm-5.93 24.28-1.967-.813c.35.724.954 1.332 1.755 1.666a3.41 3.41 0 0 0 4.45-1.833c.352-.84.354-1.759.008-2.599a3.386 3.386 0 0 0-1.84-1.844 3.409 3.409 0 0 0-2.508-.04l2.034.84c1.277.534 1.882 2 1.348 3.274a2.51 2.51 0 0 1-3.28 1.349ZM25.29 11.876a4.03 4.03 0 0 0-4.027-4.02 4.026 4.026 0 0 0-4.027 4.02c0 2.22 1.803 4.02 4.027 4.02 2.221 0 4.027-1.8 4.027-4.02Zm-7.043-.007a3.022 3.022 0 0 1 3.025-3.021 3.026 3.026 0 0 1 3.027 3.021 3.026 3.026 0 0 1-3.027 3.02 3.02 3.02 0 0 1-3.025-3.02Z"/>
</svg>