<svg width="35" height="34" viewBox="0 0 35 34" fill="none" xmlns="http://www.w3.org/2000/svg">
<path d="M21.5307 31.8718C18.3937 32.9452 15.0026 32.9792 11.8454 31.969C8.68813 30.9588 5.92753 28.9564 3.96075 26.2499C1.99397 23.5435 0.92241 20.2725 0.900253 16.9077C0.878096 13.5429 1.90648 10.2576 3.83745 7.52466C5.76841 4.7917 8.5024 2.75192 11.646 1.69881C14.7897 0.645704 18.1809 0.633562 21.3317 1.66413C24.4826 2.6947 27.2307 4.71485 29.1805 7.43392C31.1304 10.153 32.1815 13.4308 32.1826 16.7957C32.1321 18.0855 31.9785 19.369 31.7233 20.6335" stroke="#CFDFE2" stroke-width="1.8"/>
<path d="M20.2285 28.9167C19.1032 30.2164 17.8697 31.4148 16.5415 32.4986" stroke="#CFDFE2" stroke-width="1.8"/>
<path d="M16.5415 0.708923C20.7636 4.45904 23.3761 9.73873 23.8211 15.4205C23.9125 16.4519 23.9314 17.4886 23.8777 18.5227" stroke="#CFDFE2" stroke-width="1.8"/>
<path d="M16.5411 0.708923C14.2504 2.73878 12.41 5.24033 11.142 8.04784C9.87399 10.8554 9.20728 13.9047 9.18604 16.994C9.18604 27.356 13.7665 30.4263 16.5223 32.4987" stroke="#CFDFE2" stroke-width="1.8"/>
<path d="M2.93213 8.96014H30.2259" stroke="#CFDFE2" stroke-width="1.8"/>
<path d="M16.5415 0.702515V32.4987" stroke="#CFDFE2" stroke-width="1.8"/>
<path d="M3.35986 25.322H19.7122" stroke="#CFDFE2" stroke-width="1.8"/>
<path d="M0.899902 16.9939L32.1826 16.6038" stroke="#CFDFE2" stroke-width="1.8"/>
<path d="M30.1127 32.6905L32.8999 29.8506L27.8665 24.7335L30.7293 22.8722C30.771 22.8471 30.8042 22.8097 30.8246 22.765C30.8449 22.7203 30.8515 22.6704 30.8433 22.6218C30.8351 22.5733 30.8126 22.5284 30.7787 22.4932C30.7449 22.4579 30.7013 22.4339 30.6538 22.4244L21.0336 20.1345C20.9939 20.1263 20.9528 20.1282 20.914 20.1401C20.8751 20.152 20.8398 20.1734 20.8111 20.2026C20.7825 20.2317 20.7613 20.2676 20.7497 20.3071C20.738 20.3466 20.7361 20.3884 20.7442 20.4288L22.8331 30.3942C22.8431 30.4427 22.8671 30.487 22.902 30.5215C22.9369 30.5561 22.9811 30.5793 23.029 30.5882C23.0769 30.5971 23.1263 30.5913 23.171 30.5716C23.2156 30.5519 23.2535 30.5191 23.2798 30.4774L25.0792 27.5735L30.1127 32.6905Z" stroke="#CFDFE2" stroke-width="1.8"/>
</svg>
