<svg width="16" height="16" viewBox="0 0 16 16" fill="none" xmlns="http://www.w3.org/2000/svg">
<path d="M8 8.5C11.85 8.5 15 11 15 13C15 13.5304 14.7893 14.0391 14.4142 14.4142C14.0391 14.7893 13.5304 15 13 15H3C2.46957 15 1.96086 14.7893 1.58579 14.4142C1.21071 14.0391 1 13.5304 1 13C1 11 4.15 8.5 8 8.5ZM8 10C6.39 10 4.936 10.526 3.908 11.234C2.798 12.001 2.5 12.733 2.5 13C2.5 13.1326 2.55268 13.2598 2.64645 13.3536C2.74021 13.4473 2.86739 13.5 3 13.5H13C13.1326 13.5 13.2598 13.4473 13.3536 13.3536C13.4473 13.2598 13.5 13.1326 13.5 13C13.5 12.733 13.203 12 12.092 11.234C11.064 10.526 9.609 10 8 10ZM8 1C8.92826 1 9.8185 1.36875 10.4749 2.02513C11.1313 2.6815 11.5 3.57174 11.5 4.5C11.5 5.42826 11.1313 6.3185 10.4749 6.97487C9.8185 7.63125 8.92826 8 8 8C7.07174 8 6.1815 7.63125 5.52513 6.97487C4.86875 6.3185 4.5 5.42826 4.5 4.5C4.5 3.57174 4.86875 2.6815 5.52513 2.02513C6.1815 1.36875 7.07174 1 8 1ZM8 2.5C7.46957 2.5 6.96086 2.71071 6.58579 3.08579C6.21071 3.46086 6 3.96957 6 4.5C6 5.03043 6.21071 5.53914 6.58579 5.91421C6.96086 6.28929 7.46957 6.5 8 6.5C8.53043 6.5 9.03914 6.28929 9.41421 5.91421C9.78929 5.53914 10 5.03043 10 4.5C10 3.96957 9.78929 3.46086 9.41421 3.08579C9.03914 2.71071 8.53043 2.5 8 2.5Z" fill="#CFDFE2"/>
</svg>
