<svg width="16" height="17" viewBox="0 0 16 17" fill="none" xmlns="http://www.w3.org/2000/svg">
<path fill-rule="evenodd" clip-rule="evenodd" d="M13.4881 4.09668C13.5629 4.16081 13.6244 4.23905 13.6689 4.32694C13.7135 4.41483 13.7403 4.51064 13.7478 4.60889C13.7554 4.70715 13.7434 4.80592 13.7128 4.89957C13.6821 4.99322 13.6333 5.07991 13.5691 5.15468L7.56908 12.1547C7.50181 12.2332 7.41904 12.2969 7.32598 12.3419C7.23291 12.3868 7.13155 12.4121 7.02826 12.416C6.92497 12.42 6.82198 12.4025 6.72575 12.3648C6.62952 12.327 6.54214 12.2698 6.46908 12.1967L2.96908 8.69668C2.83253 8.55516 2.75702 8.36568 2.75882 8.16903C2.76062 7.97238 2.83959 7.78431 2.97871 7.64532C3.11783 7.50632 3.30598 7.42754 3.50263 7.42592C3.69928 7.42431 3.88869 7.49999 4.03008 7.63668L6.95808 10.5637L12.4311 4.17868C12.5606 4.02786 12.7446 3.93462 12.9428 3.91943C13.141 3.90424 13.3371 3.96735 13.4881 4.09668Z" fill="#CFDFE2"/>
</svg>
