<svg width="16" height="17" viewBox="0 0 16 17" fill="none" xmlns="http://www.w3.org/2000/svg">
<path fill-rule="evenodd" clip-rule="evenodd" d="M11.4999 7.50002C11.4999 8.09097 11.3835 8.67613 11.1574 9.22209C10.9312 9.76806 10.5997 10.2641 10.1819 10.682C9.76401 11.0999 9.26794 11.4313 8.72197 11.6575C8.17601 11.8836 7.59085 12 6.9999 12C6.40895 12 5.82379 11.8836 5.27782 11.6575C4.73186 11.4313 4.23578 11.0999 3.81792 10.682C3.40005 10.2641 3.06859 9.76806 2.84244 9.22209C2.61629 8.67613 2.4999 8.09097 2.4999 7.50002C2.4999 6.30654 2.974 5.16195 3.81792 4.31804C4.66183 3.47413 5.80642 3.00002 6.9999 3.00002C8.19337 3.00002 9.33796 3.47413 10.1819 4.31804C11.0258 5.16195 11.4999 6.30654 11.4999 7.50002ZM10.6799 12.24C9.47427 13.176 7.95726 13.6173 6.4377 13.4742C4.91813 13.331 3.51024 12.6141 2.50065 11.4694C1.49105 10.3247 0.955648 8.83832 1.00343 7.31277C1.05122 5.78722 1.6786 4.33723 2.75785 3.25797C3.8371 2.17872 5.2871 1.55134 6.81265 1.50355C8.3382 1.45577 9.82461 1.99117 10.9693 3.00077C12.114 4.01036 12.8309 5.41825 12.974 6.93782C13.1172 8.45739 12.6759 9.9744 11.7399 11.18L14.5299 13.97C14.6036 14.0387 14.6627 14.1215 14.7037 14.2135C14.7447 14.3055 14.7667 14.4048 14.7685 14.5055C14.7703 14.6062 14.7517 14.7062 14.714 14.7996C14.6763 14.893 14.6202 14.9778 14.5489 15.0491C14.4777 15.1203 14.3929 15.1764 14.2995 15.2141C14.2061 15.2519 14.1061 15.2704 14.0054 15.2686C13.9047 15.2668 13.8054 15.2448 13.7134 15.2038C13.6214 15.1628 13.5386 15.1037 13.4699 15.03L10.6799 12.24Z" fill="#CFDFE2"/>
</svg>
