<svg width="16" height="17" viewBox="0 0 16 17" fill="none" xmlns="http://www.w3.org/2000/svg">
<path fill-rule="evenodd" clip-rule="evenodd" d="M3.47007 3.96991C3.6107 3.82946 3.80132 3.75057 4.00007 3.75057C4.19882 3.75057 4.38945 3.82946 4.53007 3.96991L8.00007 7.43991L11.4701 3.96991C11.5387 3.89622 11.6215 3.83712 11.7135 3.79613C11.8055 3.75514 11.9048 3.73309 12.0056 3.73132C12.1063 3.72954 12.2063 3.74807 12.2997 3.78579C12.3931 3.82351 12.4779 3.87965 12.5491 3.95087C12.6203 4.02209 12.6765 4.10692 12.7142 4.20031C12.7519 4.2937 12.7704 4.39373 12.7687 4.49443C12.7669 4.59513 12.7448 4.69445 12.7039 4.78645C12.6629 4.87845 12.6038 4.96125 12.5301 5.02991L9.06007 8.49991L12.5301 11.9699C12.6038 12.0386 12.6629 12.1214 12.7039 12.2134C12.7448 12.3054 12.7669 12.4047 12.7687 12.5054C12.7704 12.6061 12.7519 12.7061 12.7142 12.7995C12.6765 12.8929 12.6203 12.9777 12.5491 13.0489C12.4779 13.1202 12.3931 13.1763 12.2997 13.214C12.2063 13.2518 12.1063 13.2703 12.0056 13.2685C11.9048 13.2667 11.8055 13.2447 11.7135 13.2037C11.6215 13.1627 11.5387 13.1036 11.4701 13.0299L8.00007 9.55991L4.53007 13.0299C4.3879 13.1624 4.19985 13.2345 4.00555 13.2311C3.81125 13.2277 3.62586 13.1489 3.48845 13.0115C3.35104 12.8741 3.27233 12.6887 3.2689 12.4944C3.26547 12.3001 3.33759 12.1121 3.47007 11.9699L6.94007 8.49991L3.47007 5.02991C3.32962 4.88928 3.25073 4.69866 3.25073 4.49991C3.25073 4.30116 3.32962 4.11053 3.47007 3.96991Z" fill="#CFDFE2"/>
</svg>
