<svg width="16" height="16" viewBox="0 0 16 16" fill="none" xmlns="http://www.w3.org/2000/svg">
<path fill-rule="evenodd" clip-rule="evenodd" d="M7.99988 1.5C9.24924 1.50011 10.4721 1.86028 11.5221 2.53738C12.572 3.21449 13.4046 4.17984 13.9202 5.31788C14.4357 6.45592 14.6123 7.71843 14.4289 8.95425C14.2455 10.1901 13.7098 11.3469 12.886 12.2861C12.0621 13.2254 10.9851 13.9073 9.7837 14.2503C8.58233 14.5933 7.30758 14.5827 6.11204 14.22C4.9165 13.8572 3.85083 13.1576 3.04261 12.2049C2.2344 11.2522 1.71787 10.0867 1.55488 8.848C1.53967 8.74922 1.54436 8.6484 1.56866 8.55145C1.59297 8.45451 1.63641 8.3634 1.69643 8.28348C1.75645 8.20356 1.83184 8.13645 1.91816 8.08608C2.00449 8.03571 2.10001 8.0031 2.19912 7.99017C2.29822 7.97724 2.39891 7.98425 2.49527 8.01078C2.59163 8.03732 2.68171 8.08285 2.76023 8.14469C2.83874 8.20654 2.9041 8.28345 2.95247 8.37091C3.00084 8.45838 3.03124 8.55463 3.04188 8.654C3.18937 9.77538 3.71262 10.8136 4.52623 11.5993C5.33983 12.385 6.39573 12.8717 7.52157 12.9799C8.64741 13.0881 9.77669 12.8116 10.7251 12.1953C11.6735 11.579 12.385 10.6595 12.7434 9.58674C13.1018 8.51401 13.0861 7.35145 12.6986 6.28884C12.3112 5.22623 11.575 4.32633 10.6103 3.73602C9.64552 3.14572 8.50914 2.89988 7.38665 3.03863C6.26417 3.17739 5.22186 3.69254 4.42988 4.5H5.74988C5.94879 4.5 6.13956 4.57902 6.28021 4.71967C6.42086 4.86033 6.49988 5.05109 6.49988 5.25C6.49988 5.44892 6.42086 5.63968 6.28021 5.78033C6.13956 5.92099 5.94879 6 5.74988 6H2.74988C2.55097 6 2.3602 5.92099 2.21955 5.78033C2.0789 5.63968 1.99988 5.44892 1.99988 5.25V2.25C1.99988 2.05109 2.0789 1.86033 2.21955 1.71967C2.3602 1.57902 2.55097 1.5 2.74988 1.5C2.94879 1.5 3.13956 1.57902 3.28021 1.71967C3.42086 1.86033 3.49988 2.05109 3.49988 2.25V3.31C4.709 2.14687 6.32212 1.49803 7.99988 1.5Z" fill="#CFDFE2"/>
</svg>
