<svg width="16" height="16" viewBox="0 0 16 16" fill="none" xmlns="http://www.w3.org/2000/svg">
<path fill-rule="evenodd" clip-rule="evenodd" d="M14.78 7.47C14.9205 7.61063 14.9993 7.80125 14.9993 8C14.9993 8.19875 14.9205 8.38937 14.78 8.53L12.28 11.03C12.2113 11.1037 12.1285 11.1628 12.0365 11.2038C11.9445 11.2448 11.8452 11.2668 11.7445 11.2686C11.6438 11.2704 11.5438 11.2518 11.4504 11.2141C11.357 11.1764 11.2722 11.1203 11.201 11.049C11.1297 10.9778 11.0736 10.893 11.0359 10.7996C10.9982 10.7062 10.9796 10.6062 10.9814 10.5055C10.9832 10.4048 11.0052 10.3055 11.0462 10.2135C11.0872 10.1215 11.1463 10.0387 11.22 9.97L12.44 8.75H4.75C4.55109 8.75 4.36032 8.67098 4.21967 8.53033C4.07902 8.38968 4 8.19891 4 8C4 7.80109 4.07902 7.61032 4.21967 7.46967C4.36032 7.32902 4.55109 7.25 4.75 7.25H12.44L11.22 6.03C11.0875 5.88783 11.0154 5.69978 11.0188 5.50548C11.0223 5.31118 11.101 5.12579 11.2384 4.98838C11.3758 4.85097 11.5612 4.77225 11.7555 4.76883C11.9498 4.7654 12.1378 4.83752 12.28 4.97L14.78 7.47ZM9.5 4.25C9.5 4.44891 9.42098 4.63968 9.28033 4.78033C9.13968 4.92098 8.94891 5 8.75 5C8.55109 5 8.36032 4.92098 8.21967 4.78033C8.07902 4.63968 8 4.44891 8 4.25V4C8 3.60218 7.84196 3.22064 7.56066 2.93934C7.27936 2.65804 6.89782 2.5 6.5 2.5H4C3.60218 2.5 3.22064 2.65804 2.93934 2.93934C2.65804 3.22064 2.5 3.60218 2.5 4V12C2.5 12.3978 2.65804 12.7794 2.93934 13.0607C3.22064 13.342 3.60218 13.5 4 13.5H6.5C6.89782 13.5 7.27936 13.342 7.56066 13.0607C7.84196 12.7794 8 12.3978 8 12V11.75C8 11.5511 8.07902 11.3603 8.21967 11.2197C8.36032 11.079 8.55109 11 8.75 11C8.94891 11 9.13968 11.079 9.28033 11.2197C9.42098 11.3603 9.5 11.5511 9.5 11.75V12C9.5 12.7956 9.18393 13.5587 8.62132 14.1213C8.05871 14.6839 7.29565 15 6.5 15H4C3.20435 15 2.44129 14.6839 1.87868 14.1213C1.31607 13.5587 1 12.7956 1 12V4C1 3.20435 1.31607 2.44129 1.87868 1.87868C2.44129 1.31607 3.20435 1 4 1H6.5C7.29565 1 8.05871 1.31607 8.62132 1.87868C9.18393 2.44129 9.5 3.20435 9.5 4V4.25Z" fill="#CFDFE2"/>
</svg>
