<svg width="24" height="24" viewBox="0 0 24 24" fill="none" xmlns="http://www.w3.org/2000/svg">
<path d="M12 24C18.5529 24 24 18.5647 24 12C24 5.44707 18.5411 0 11.9882 0C5.42347 0 0 5.44707 0 12C0 18.5647 5.43527 24 12 24ZM12 16.0118C8.45877 16.0118 5.72937 17.2706 4.54113 18.6823C2.96467 16.9176 2.0117 14.5765 2.0117 12C2.0117 6.45882 6.43527 2.00001 11.9882 2.00001C17.5293 2.00001 21.9881 6.45882 22 12C22 14.5883 21.047 16.9294 19.4588 18.6941C18.2705 17.2823 15.5411 16.0118 12 16.0118ZM12 14.0118C14.2588 14.0353 16.0353 12.1059 16.0353 9.57649C16.0353 7.20001 14.247 5.22354 12 5.22354C9.74113 5.22354 7.94115 7.20001 7.96469 9.57649C7.97644 12.1059 9.72939 13.9882 12 14.0118Z" fill="#CFDFE2"/>
</svg>
