<svg width="16" height="16" viewBox="0 0 16 16" fill="none" xmlns="http://www.w3.org/2000/svg">
<path fill-rule="evenodd" clip-rule="evenodd" d="M8 9.524L8.976 10.361L11.964 12.921C12.0112 12.9613 12.0688 12.9872 12.1302 12.9957C12.1917 13.0043 12.2542 12.995 12.3106 12.9692C12.3669 12.9433 12.4147 12.9019 12.4483 12.8498C12.4818 12.7976 12.4998 12.737 12.5 12.675V4.5C12.5 4.10218 12.342 3.72064 12.0607 3.43934C11.7794 3.15804 11.3978 3 11 3H5C4.60218 3 4.22064 3.15804 3.93934 3.43934C3.65804 3.72064 3.5 4.10218 3.5 4.5V12.675C3.50004 12.7371 3.51785 12.7979 3.55134 12.8501C3.58484 12.9024 3.6326 12.944 3.68898 12.97C3.74536 12.996 3.80801 13.0052 3.86951 12.9967C3.93101 12.9882 3.98878 12.9623 4.036 12.922L7.024 10.362L8 9.524ZM14 4.5C14 3.70435 13.6839 2.94129 13.1213 2.37868C12.5587 1.81607 11.7956 1.5 11 1.5H5C4.20435 1.5 3.44129 1.81607 2.87868 2.37868C2.31607 2.94129 2 3.70435 2 4.5V12.675C1.99988 13.0241 2.0999 13.3659 2.28819 13.6599C2.47648 13.9539 2.74515 14.1877 3.06231 14.3336C3.37948 14.4795 3.73184 14.5314 4.07759 14.4831C4.42334 14.4347 4.74798 14.2883 5.013 14.061L8 11.5L10.987 14.06C11.2519 14.2871 11.5763 14.4336 11.9219 14.482C12.2675 14.5304 12.6197 14.4787 12.9368 14.333C13.2539 14.1874 13.5226 13.9539 13.711 13.6602C13.8994 13.3665 13.9997 13.0249 14 12.676V4.5Z" fill="#CFDFE2"/>
</svg>
