<svg width="16" height="16" viewBox="0 0 16 16" fill="none" xmlns="http://www.w3.org/2000/svg">
<path fill-rule="evenodd" clip-rule="evenodd" d="M6.94304 8.70303L4.30104 6.30003C4.2765 6.27785 4.24781 6.26077 4.21662 6.24976C4.18544 6.23876 4.15238 6.23405 4.11936 6.23591C4.08634 6.23777 4.05402 6.24616 4.02427 6.2606C3.99452 6.27504 3.96793 6.29524 3.94604 6.32003L2.29904 8.17103C2.27705 8.19575 2.26018 8.2246 2.24942 8.2559C2.23867 8.28719 2.23423 8.32031 2.23637 8.35333C2.23851 8.38635 2.24718 8.41862 2.26189 8.44827C2.27659 8.47791 2.29704 8.50434 2.32204 8.52603L7.10704 12.673C7.13245 12.6953 7.16211 12.7122 7.19422 12.7226C7.22633 12.7331 7.26023 12.737 7.29388 12.734C7.32752 12.731 7.36021 12.7212 7.38997 12.7052C7.41973 12.6893 7.44595 12.6674 7.46704 12.641L13.29 5.36003C13.3299 5.3099 13.3491 5.24637 13.3435 5.18254C13.3379 5.11871 13.308 5.05946 13.26 5.01703L11.404 3.36703C11.3784 3.34424 11.3484 3.32697 11.3158 3.31628C11.2832 3.3056 11.2488 3.30173 11.2146 3.30492C11.1805 3.30811 11.1474 3.31829 11.1174 3.33482C11.0873 3.35135 11.061 3.37389 11.04 3.40103L6.94304 8.70303ZM6.75004 6.50003L9.85404 2.48303C10.0007 2.29322 10.1849 2.1356 10.3951 2.01996C10.6053 1.90432 10.837 1.83313 11.0758 1.81081C11.3147 1.78849 11.5556 1.81552 11.7836 1.89022C12.0115 1.96491 12.2217 2.08568 12.401 2.24503L14.258 3.89603C14.5932 4.19391 14.8011 4.60906 14.8391 5.05582C14.8771 5.50258 14.7421 5.94687 14.462 6.29703L8.63704 13.58C8.48984 13.7639 8.30704 13.9162 8.0996 14.0277C7.89215 14.1392 7.66433 14.2077 7.42977 14.2291C7.19522 14.2505 6.95876 14.2243 6.73457 14.1521C6.51037 14.0799 6.30306 13.9632 6.12504 13.809L1.33904 9.66003C1.16383 9.5083 1.0205 9.32329 0.91738 9.11572C0.814258 8.90816 0.753395 8.68217 0.738323 8.45089C0.723252 8.21961 0.754273 7.98764 0.829585 7.76845C0.904897 7.54925 1.023 7.3472 1.17704 7.17403L2.82404 5.32203C2.97784 5.14892 3.16447 5.00806 3.3731 4.90761C3.58174 4.80716 3.80824 4.74911 4.03947 4.73684C4.2707 4.72456 4.50208 4.75829 4.72018 4.83609C4.93828 4.91388 5.13877 5.03418 5.31004 5.19003L6.75004 6.50003Z" fill="#CFDFE2"/>
</svg>
