<svg width="16" height="16" viewBox="0 0 16 16" fill="none" xmlns="http://www.w3.org/2000/svg">
<path fill-rule="evenodd" clip-rule="evenodd" d="M10.5301 2.96995C10.6705 3.11058 10.7494 3.3012 10.7494 3.49995C10.7494 3.6987 10.6705 3.88933 10.5301 4.02995L6.56007 7.99995L10.5301 11.97C10.6038 12.0386 10.6629 12.1214 10.7039 12.2134C10.7448 12.3054 10.7669 12.4047 10.7687 12.5054C10.7704 12.6061 10.7519 12.7062 10.7142 12.7995C10.6765 12.8929 10.6203 12.9778 10.5491 13.049C10.4779 13.1202 10.3931 13.1764 10.2997 13.2141C10.2063 13.2518 10.1063 13.2703 10.0056 13.2685C9.90485 13.2668 9.80553 13.2447 9.71353 13.2037C9.62153 13.1627 9.53873 13.1036 9.47007 13.03L4.97007 8.52995C4.82962 8.38932 4.75073 8.1987 4.75073 7.99995C4.75073 7.8012 4.82962 7.61058 4.97007 7.46995L9.47007 2.96995C9.6107 2.8295 9.80132 2.75061 10.0001 2.75061C10.1988 2.75061 10.3894 2.8295 10.5301 2.96995Z" fill="#CFDFE2"/>
</svg>
