<svg width="16" height="16" viewBox="0 0 16 16" fill="none" xmlns="http://www.w3.org/2000/svg">
<path fill-rule="evenodd" clip-rule="evenodd" d="M5.47007 13.03C5.32962 12.8893 5.25073 12.6987 5.25073 12.5C5.25073 12.3012 5.32962 12.1106 5.47007 11.97L9.44007 7.99997L5.47007 4.02997C5.33759 3.88779 5.26547 3.69975 5.2689 3.50545C5.27233 3.31114 5.35104 3.12576 5.48845 2.98835C5.62586 2.85093 5.81125 2.77222 6.00555 2.76879C6.19985 2.76537 6.3879 2.83749 6.53007 2.96997L11.0301 7.46997C11.1705 7.61059 11.2494 7.80122 11.2494 7.99997C11.2494 8.19872 11.1705 8.38934 11.0301 8.52997L6.53007 13.03C6.38945 13.1704 6.19882 13.2493 6.00007 13.2493C5.80132 13.2493 5.6107 13.1704 5.47007 13.03Z" fill="#CFDFE2"/>
</svg>
