<svg width="16" height="16" viewBox="0 0 16 16" fill="none" xmlns="http://www.w3.org/2000/svg">
<path fill-rule="evenodd" clip-rule="evenodd" d="M2.97007 5.47003C3.1107 5.32958 3.30132 5.25069 3.50007 5.25069C3.69882 5.25069 3.88945 5.32958 4.03007 5.47003L8.00007 9.44003L11.9701 5.47003C12.0387 5.39634 12.1215 5.33724 12.2135 5.29625C12.3055 5.25526 12.4048 5.23322 12.5056 5.23144C12.6063 5.22966 12.7063 5.24819 12.7997 5.28591C12.8931 5.32363 12.9779 5.37977 13.0491 5.45099C13.1203 5.52221 13.1765 5.60705 13.2142 5.70043C13.2519 5.79382 13.2704 5.89385 13.2687 5.99455C13.2669 6.09526 13.2448 6.19457 13.2039 6.28657C13.1629 6.37857 13.1038 6.46137 13.0301 6.53003L8.53007 11.03C8.38945 11.1705 8.19882 11.2494 8.00007 11.2494C7.80132 11.2494 7.6107 11.1705 7.47007 11.03L2.97007 6.53003C2.82962 6.38941 2.75073 6.19878 2.75073 6.00003C2.75073 5.80128 2.82962 5.61066 2.97007 5.47003Z" fill="#CFDFE2"/>
</svg>
