<svg width="16" height="16" viewBox="0 0 16 16" fill="none" xmlns="http://www.w3.org/2000/svg">
<path fill-rule="evenodd" clip-rule="evenodd" d="M10 1.5C9.80109 1.5 9.61032 1.57902 9.46967 1.71967C9.32902 1.86032 9.25 2.05109 9.25 2.25C9.25 2.44891 9.32902 2.63968 9.46967 2.78033C9.61032 2.92098 9.80109 3 10 3H11.94L6.97 7.97C6.83752 8.11217 6.7654 8.30022 6.76883 8.49452C6.77225 8.68882 6.85097 8.87421 6.98838 9.01162C7.12579 9.14903 7.31118 9.22775 7.50548 9.23118C7.69978 9.2346 7.88783 9.16248 8.03 9.03L13 4.06V6C13 6.19891 13.079 6.38968 13.2197 6.53033C13.3603 6.67098 13.5511 6.75 13.75 6.75C13.9489 6.75 14.1397 6.67098 14.2803 6.53033C14.421 6.38968 14.5 6.19891 14.5 6V2.25C14.5 2.05109 14.421 1.86032 14.2803 1.71967C14.1397 1.57902 13.9489 1.5 13.75 1.5H10ZM7.5 3.25C7.5 3.05109 7.42098 2.86032 7.28033 2.71967C7.13968 2.57902 6.94891 2.5 6.75 2.5H4.5C3.70435 2.5 2.94129 2.81607 2.37868 3.37868C1.81607 3.94129 1.5 4.70435 1.5 5.5V11.5C1.5 12.2956 1.81607 13.0587 2.37868 13.6213C2.94129 14.1839 3.70435 14.5 4.5 14.5H10.5C11.2956 14.5 12.0587 14.1839 12.6213 13.6213C13.1839 13.0587 13.5 12.2956 13.5 11.5V9.25C13.5 9.05109 13.421 8.86032 13.2803 8.71967C13.1397 8.57902 12.9489 8.5 12.75 8.5C12.5511 8.5 12.3603 8.57902 12.2197 8.71967C12.079 8.86032 12 9.05109 12 9.25V11.5C12 11.8978 11.842 12.2794 11.5607 12.5607C11.2794 12.842 10.8978 13 10.5 13H4.5C4.10218 13 3.72064 12.842 3.43934 12.5607C3.15804 12.2794 3 11.8978 3 11.5V5.5C3 5.10218 3.15804 4.72064 3.43934 4.43934C3.72064 4.15804 4.10218 4 4.5 4H6.75C6.94891 4 7.13968 3.92098 7.28033 3.78033C7.42098 3.63968 7.5 3.44891 7.5 3.25Z" fill="#CFDFE2"/>
</svg>
