<svg width="16" height="16" viewBox="0 0 16 16" fill="none" xmlns="http://www.w3.org/2000/svg">
<g clip-path="url(#clip0_30_857)">
<path fill-rule="evenodd" clip-rule="evenodd" d="M12.5 4C12.5 4.174 12.429 4.513 11.615 4.888C10.801 5.263 9.538 5.5 8 5.5C6.462 5.5 5.201 5.263 4.385 4.888C3.57 4.513 3.5 4.174 3.5 4C3.5 3.826 3.571 3.487 4.385 3.112C5.199 2.737 6.462 2.5 8 2.5C9.538 2.5 10.799 2.737 11.615 3.112C12.429 3.487 12.5 3.826 12.5 4ZM11.052 6.66C10.158 6.888 9.115 7 8 7C6.885 7 5.842 6.887 4.948 6.66L6.928 9.565C7.138 9.873 7.25 10.237 7.25 10.609V13.979C7.30867 13.9923 7.392 13.9993 7.5 14C7.922 14 8.249 13.86 8.45 13.684C8.635 13.522 8.75 13.304 8.75 13V10.61C8.75 10.237 8.862 9.873 9.072 9.565L11.052 6.66ZM8 1C11.314 1 14 2 14 4C14.0002 4.65142 13.804 5.28777 13.437 5.826L10.312 10.41C10.2714 10.4688 10.2498 10.5386 10.25 10.61V13C10.25 14.5 9 15.5 7.5 15.5C6 15.5 5.75 14.5 5.75 14.5V10.61C5.75052 10.5387 5.72924 10.4689 5.689 10.41L2.563 5.826C2.19604 5.28777 1.99983 4.65142 2 4C2 2 4.686 1 8 1ZM7.12 13.936C7.11 13.9307 7.107 13.926 7.107 13.926L7.12 13.936Z" fill="#CFDFE2"/>
</g>
<defs>
<clipPath id="clip0_30_857">
<rect width="16" height="16" fill="white"/>
</clipPath>
</defs>
</svg>
