<svg width="17" height="16" viewBox="0 0 17 16" fill="none" xmlns="http://www.w3.org/2000/svg">
<g clip-path="url(#clip0_11_121)">
<mask id="mask0_11_121" style="mask-type:luminance" maskUnits="userSpaceOnUse" x="0" y="0" width="17" height="16">
<path d="M0.399902 0H16.3999V16H0.399902V0Z" fill="white"/>
</mask>
<g mask="url(#mask0_11_121)">
<path fill-rule="evenodd" clip-rule="evenodd" d="M7.59899 2H9.19999C9.25303 2 9.3039 2.02107 9.34141 2.05858C9.37892 2.09609 9.39999 2.14696 9.39999 2.2C9.39999 4.008 11.358 5.139 12.924 4.234C12.9696 4.20789 13.0238 4.20091 13.0745 4.21459C13.1253 4.22827 13.1686 4.26149 13.195 4.307L13.997 5.695C14.0101 5.71765 14.0186 5.74265 14.022 5.76859C14.0254 5.79452 14.0237 5.82087 14.0169 5.84613C14.0101 5.8714 13.9984 5.89507 13.9825 5.91581C13.9665 5.93655 13.9467 5.95395 13.924 5.967C12.358 6.871 12.358 9.131 13.924 10.036C13.9695 10.0624 14.0027 10.1057 14.0164 10.1564C14.0301 10.2072 14.0231 10.2613 13.997 10.307L13.195 11.695C13.1686 11.7405 13.1253 11.7737 13.0745 11.7874C13.0238 11.8011 12.9696 11.7941 12.924 11.768C11.358 10.863 9.39999 11.993 9.39999 13.8C9.39999 13.8529 9.37906 13.9036 9.34176 13.9411C9.30447 13.9785 9.25386 13.9997 9.20099 14H7.59999C7.57369 14.0001 7.54762 13.995 7.5233 13.985C7.49897 13.975 7.47687 13.9603 7.45827 13.9417C7.43967 13.9231 7.42495 13.901 7.41494 13.8767C7.40494 13.8524 7.39986 13.8263 7.39999 13.8C7.39999 11.992 5.44199 10.862 3.87599 11.766C3.85334 11.7791 3.82834 11.7876 3.8024 11.791C3.77647 11.7944 3.75012 11.7927 3.72486 11.7859C3.69959 11.7791 3.67591 11.7674 3.65518 11.7515C3.63444 11.7355 3.61704 11.7157 3.60399 11.693L2.80399 10.305C2.7778 10.2595 2.77066 10.2054 2.78415 10.1547C2.79764 10.1039 2.83065 10.0605 2.87599 10.034C4.44199 9.129 4.44199 6.869 2.87599 5.964C2.83048 5.93764 2.79726 5.89434 2.78358 5.84356C2.7699 5.79278 2.77688 5.73865 2.80299 5.693L3.60399 4.305C3.61704 4.28233 3.63444 4.26246 3.65518 4.24652C3.67591 4.23059 3.69959 4.21889 3.72486 4.21211C3.75012 4.20533 3.77647 4.2036 3.8024 4.20701C3.82834 4.21042 3.85334 4.21891 3.87599 4.232C5.44199 5.138 7.39999 4.007 7.39999 2.2C7.39999 2.09 7.48899 2 7.59899 2ZM5.89999 2.2C5.89999 1.26 6.65999 0.5 7.59899 0.5H9.19999C10.14 0.5 10.9 1.26 10.9 2.2C10.9003 2.34896 10.9397 2.49523 11.0144 2.62416C11.089 2.75308 11.1962 2.86012 11.3252 2.93456C11.4543 3.009 11.6006 3.04823 11.7495 3.0483C11.8985 3.04838 12.0449 3.00931 12.174 2.935C12.5642 2.70999 13.0277 2.64911 13.4627 2.76574C13.8978 2.88238 14.2687 3.16698 14.494 3.557L15.296 4.945C15.765 5.758 15.486 6.796 14.674 7.265C14.5448 7.33962 14.4376 7.44691 14.363 7.57611C14.2885 7.7053 14.2492 7.85184 14.2492 8.001C14.2492 8.15017 14.2885 8.2967 14.363 8.42589C14.4376 8.55509 14.5448 8.66238 14.674 8.737C15.0638 8.96247 15.3482 9.33339 15.4648 9.76835C15.5815 10.2033 15.5207 10.6668 15.296 11.057L14.494 12.445C14.2687 12.835 13.8978 13.1196 13.4627 13.2363C13.0277 13.3529 12.5642 13.292 12.174 13.067C12.0449 12.9927 11.8985 12.9536 11.7495 12.9537C11.6006 12.9538 11.4543 12.993 11.3252 13.0674C11.1962 13.1419 11.089 13.2489 11.0144 13.3778C10.9397 13.5068 10.9003 13.653 10.9 13.802C10.9 14.741 10.14 15.502 9.20099 15.502H7.59999C7.14929 15.5017 6.71715 15.3225 6.39855 15.0037C6.07996 14.6849 5.90099 14.2527 5.90099 13.802C5.90069 13.653 5.86125 13.5068 5.78662 13.3778C5.71199 13.2489 5.60479 13.1419 5.47575 13.0674C5.34672 12.993 5.2004 12.9538 5.05143 12.9537C4.90247 12.9536 4.7561 12.9927 4.62699 13.067C4.43383 13.1785 4.22058 13.2509 3.99944 13.2801C3.77829 13.3092 3.55357 13.2944 3.33812 13.2367C3.12268 13.1789 2.92072 13.0793 2.7438 12.9434C2.56687 12.8076 2.41844 12.6382 2.30699 12.445L1.50499 11.057C1.27998 10.6668 1.2191 10.2033 1.33573 9.76824C1.45237 9.3332 1.73697 8.96228 2.12699 8.737C2.25591 8.66231 2.36294 8.55505 2.43735 8.42596C2.51175 8.29687 2.55091 8.1505 2.55091 8.0015C2.55091 7.8525 2.51175 7.70613 2.43735 7.57704C2.36294 7.44795 2.25591 7.34069 2.12699 7.266C1.93374 7.15445 1.76435 7.00593 1.62851 6.82892C1.49266 6.6519 1.39301 6.44986 1.33525 6.23433C1.27749 6.0188 1.26275 5.79401 1.29188 5.57278C1.321 5.35156 1.39342 5.13824 1.50499 4.945L2.30599 3.557C2.53127 3.16698 2.90219 2.88238 3.33723 2.76574C3.77227 2.64911 4.23582 2.70999 4.62599 2.935C4.7551 3.00931 4.90147 3.04838 5.05043 3.0483C5.1994 3.04823 5.34572 3.009 5.47475 2.93456C5.60379 2.86012 5.71099 2.75308 5.78562 2.62416C5.86025 2.49523 5.89969 2.34896 5.89999 2.2ZM9.89999 8C9.89999 8.39782 9.74195 8.77936 9.46065 9.06066C9.17935 9.34196 8.79781 9.5 8.39999 9.5C8.00216 9.5 7.62063 9.34196 7.33933 9.06066C7.05802 8.77936 6.89999 8.39782 6.89999 8C6.89999 7.60218 7.05802 7.22064 7.33933 6.93934C7.62063 6.65804 8.00216 6.5 8.39999 6.5C8.79781 6.5 9.17935 6.65804 9.46065 6.93934C9.74195 7.22064 9.89999 7.60218 9.89999 8ZM11.4 8C11.4 8.79565 11.0839 9.55871 10.5213 10.1213C9.9587 10.6839 9.19564 11 8.39999 11C7.60434 11 6.84128 10.6839 6.27867 10.1213C5.71606 9.55871 5.39999 8.79565 5.39999 8C5.39999 7.20435 5.71606 6.44129 6.27867 5.87868C6.84128 5.31607 7.60434 5 8.39999 5C9.19564 5 9.9587 5.31607 10.5213 5.87868C11.0839 6.44129 11.4 7.20435 11.4 8Z" fill="#CFDFE2"/>
</g>
</g>
<defs>
<clipPath id="clip0_11_121">
<rect width="16" height="16" fill="white" transform="translate(0.399902)"/>
</clipPath>
</defs>
</svg>
