<svg width="16" height="16" viewBox="0 0 16 16" fill="none" xmlns="http://www.w3.org/2000/svg">
<g clip-path="url(#clip0_34_264)">
<path fill-rule="evenodd" clip-rule="evenodd" d="M1.633 2.79602C2.395 1.95902 3.483 1.49902 4.76 1.49902C5.924 1.49902 7.167 2.04902 8 3.12502C8.828 2.05002 10.066 1.49902 11.24 1.49902C12.514 1.49902 13.6 1.95702 14.364 2.79202C15.12 3.62002 15.5 4.75402 15.5 6.01202C15.5 8.17802 14.387 9.92102 12.978 11.276C11.573 12.628 9.808 13.659 8.345 14.416C8.23784 14.4715 8.1189 14.5002 7.99826 14.4999C7.87761 14.4995 7.75883 14.4701 7.652 14.414C6.189 13.649 4.424 12.626 3.019 11.281C1.61 9.93002 0.5 8.19302 0.5 6.01302C0.5 4.75802 0.878 3.62402 1.633 2.79602ZM2.742 3.80602C2.287 4.30602 2 5.05302 2 6.01302C2 7.63702 2.816 9.00902 4.057 10.197C5.203 11.295 6.657 12.182 8.002 12.902C9.337 12.192 10.792 11.298 11.939 10.195C13.182 8.99802 14 7.62002 14 6.01302C14 5.05002 13.712 4.30302 13.256 3.80302C12.808 3.31402 12.14 3.00002 11.24 3.00002C10.264 3.00002 9.147 3.62802 8.713 4.95002C8.66392 5.10044 8.56852 5.23148 8.44046 5.3244C8.31239 5.41732 8.15822 5.46736 8 5.46736C7.84178 5.46736 7.68761 5.41732 7.55954 5.3244C7.43148 5.23148 7.33608 5.10044 7.287 4.95002C6.854 3.63002 5.725 3.00002 4.76 3.00002C3.857 3.00002 3.19 3.31402 2.742 3.80602Z" fill="#CFDFE2"/>
</g>
<defs>
<clipPath id="clip0_34_264">
<rect width="16" height="16" fill="white"/>
</clipPath>
</defs>
</svg>
