<svg width="16" height="16" viewBox="0 0 16 16" fill="none" xmlns="http://www.w3.org/2000/svg">
<g clip-path="url(#clip0_254_467)">
<path fill-rule="evenodd" clip-rule="evenodd" d="M4.76 1.50002C3.482 1.50002 2.395 1.95902 1.633 2.79602C0.878 3.62402 0.5 4.75802 0.5 6.01302C0.5 8.19302 1.61 9.93002 3.02 11.281C4.424 12.626 6.19 13.649 7.652 14.414C7.75883 14.4701 7.87761 14.4995 7.99826 14.4999C8.1189 14.5002 8.23784 14.4715 8.345 14.416C9.808 13.659 11.573 12.628 12.978 11.276C14.388 9.92102 15.5 8.17802 15.5 6.01302C15.5 4.75302 15.12 3.62002 14.364 2.79202C13.6 1.95702 12.514 1.49902 11.24 1.49902C10.066 1.49902 8.828 2.05002 8 3.12502C7.167 2.05002 5.924 1.49902 4.76 1.49902M2 6.01202C2 5.05202 2.287 4.30402 2.742 3.80502C3.189 3.31302 3.857 2.99802 4.76 2.99802C5.66 2.99802 6.7 3.54502 7.19 4.68802L6.066 7.19202C5.99087 7.35941 5.97971 7.54854 6.03462 7.7236C6.08954 7.89867 6.20672 8.04753 6.364 8.14202L8.374 9.34802L7.469 12.609C6.282 11.945 5.053 11.151 4.057 10.196C2.817 9.01002 2 7.63602 2 6.01202ZM9.119 12.275C10.112 11.685 11.106 10.995 11.939 10.195C13.182 8.99802 14 7.62002 14 6.01302C14 5.05002 13.712 4.30302 13.256 3.80302C12.808 3.31402 12.14 3.00002 11.24 3.00002C10.266 3.00002 9.152 3.62502 8.715 4.94002C8.70506 4.96988 8.69371 4.99924 8.681 5.02802L7.708 7.20002L9.637 8.35802C9.7778 8.44243 9.88702 8.57071 9.94789 8.72317C10.0088 8.87563 10.0179 9.04385 9.974 9.20202L9.119 12.275Z" fill="#CFDFE2"/>
</g>
<defs>
<clipPath id="clip0_254_467">
<rect width="16" height="16" fill="white"/>
</clipPath>
</defs>
</svg>
