<svg width="16" height="16" viewBox="0 0 16 16" fill="none" xmlns="http://www.w3.org/2000/svg">
<g clip-path="url(#clip0_21_142)">
<path fill-rule="evenodd" clip-rule="evenodd" d="M11.836 1.5C11.9645 1.50018 12.0902 1.53763 12.1978 1.60781C12.3054 1.67799 12.3904 1.77789 12.4423 1.89539C12.4943 2.01289 12.5111 2.14295 12.4906 2.26979C12.4701 2.39664 12.4133 2.51481 12.327 2.61L11.973 3H4.027L3.673 2.61C3.58676 2.51488 3.52994 2.39679 3.50943 2.27004C3.48893 2.14329 3.50561 2.01331 3.55747 1.89585C3.60932 1.77838 3.69412 1.67847 3.80159 1.60822C3.90906 1.53796 4.0346 1.50037 4.163 1.5H11.836ZM5.391 4.5L7.515 6.836C7.56184 6.88761 7.61895 6.92887 7.68266 6.95711C7.74638 6.98535 7.8153 6.99996 7.885 7H8.115C8.1847 6.99996 8.25362 6.98535 8.31734 6.95711C8.38105 6.92887 8.43816 6.88761 8.485 6.836L10.61 4.5H5.391ZM6.043 7.447L3.5 4.65V6.502C3.50011 6.62259 3.54379 6.73908 3.623 6.83L4.87 8.266C5.21445 7.93193 5.61011 7.6551 6.042 7.446M3.962 9.507L2.492 7.814C2.17515 7.45031 2.00042 6.98435 2 6.502V2C2 1.46957 2.21071 0.960859 2.58579 0.585786C2.96086 0.210714 3.46957 0 4 0L12 0C12.5304 0 13.0391 0.210714 13.4142 0.585786C13.7893 0.960859 14 1.46957 14 2V6.502C14.0001 6.9841 13.8261 7.45002 13.51 7.814L12.036 9.508C12.3741 10.1941 12.5317 10.955 12.494 11.7189C12.4563 12.4828 12.2246 13.2245 11.8206 13.874C11.4166 14.5234 10.8537 15.0592 10.1852 15.4307C9.51658 15.8022 8.76435 15.9971 7.9995 15.9971C7.23465 15.9971 6.48242 15.8022 5.81385 15.4307C5.14527 15.0592 4.58242 14.5234 4.17843 13.874C3.77445 13.2245 3.54266 12.4828 3.50497 11.7189C3.46727 10.955 3.62491 10.1941 3.963 9.508M11.129 8.266C10.7846 7.93193 10.3889 7.6551 9.957 7.446L12.5 4.65V6.502C12.4999 6.62259 12.4562 6.73908 12.377 6.83L11.129 8.266ZM11 11.5C11 12.2956 10.6839 13.0587 10.1213 13.6213C9.55871 14.1839 8.79565 14.5 8 14.5C7.20435 14.5 6.44129 14.1839 5.87868 13.6213C5.31607 13.0587 5 12.2956 5 11.5C5 10.7044 5.31607 9.94129 5.87868 9.37868C6.44129 8.81607 7.20435 8.5 8 8.5C8.79565 8.5 9.55871 8.81607 10.1213 9.37868C10.6839 9.94129 11 10.7044 11 11.5Z" fill="#CFDFE2"/>
</g>
<defs>
<clipPath id="clip0_21_142">
<rect width="16" height="16" fill="white"/>
</clipPath>
</defs>
</svg>
