<svg width="16" height="16" viewBox="0 0 16 16" fill="none" xmlns="http://www.w3.org/2000/svg">
<path d="M5.25 1.5C6.216 1.5 7 2.284 7 3.25V12.75C7 13.2141 6.81563 13.6592 6.48744 13.9874C6.15925 14.3156 5.71413 14.5 5.25 14.5H3.25L3.071 14.491C2.67109 14.4497 2.29759 14.272 2.01331 13.9877C1.72902 13.7034 1.55129 13.3299 1.51 12.93L1.5 12.75V3.25C1.49996 2.81683 1.66056 2.39904 1.95076 2.07744C2.24095 1.75585 2.6401 1.55331 3.071 1.509L3.25 1.5H5.25ZM12.75 1.5C13.716 1.5 14.5 2.284 14.5 3.25V12.75C14.5 13.2141 14.3156 13.6592 13.9874 13.9874C13.6592 14.3156 13.2141 14.5 12.75 14.5H10.75L10.571 14.491C10.1711 14.4497 9.79759 14.272 9.51331 13.9877C9.22902 13.7034 9.05129 13.3299 9.01 12.93L9 12.75V3.25C8.99996 2.81683 9.16056 2.39904 9.45076 2.07744C9.74095 1.75585 10.1401 1.55331 10.571 1.509L10.75 1.5H12.75ZM3.25 3C3.1837 3 3.12011 3.02634 3.07322 3.07322C3.02634 3.12011 3 3.1837 3 3.25V12.75C3 12.888 3.112 13 3.25 13H5.25C5.3163 13 5.37989 12.9737 5.42678 12.9268C5.47366 12.8799 5.5 12.8163 5.5 12.75V3.25C5.5 3.1837 5.47366 3.12011 5.42678 3.07322C5.37989 3.02634 5.3163 3 5.25 3H3.25ZM10.75 3C10.6837 3 10.6201 3.02634 10.5732 3.07322C10.5263 3.12011 10.5 3.1837 10.5 3.25V12.75C10.5 12.888 10.612 13 10.75 13H12.75C12.8163 13 12.8799 12.9737 12.9268 12.9268C12.9737 12.8799 13 12.8163 13 12.75V3.25C13 3.1837 12.9737 3.12011 12.9268 3.07322C12.8799 3.02634 12.8163 3 12.75 3H10.75Z" fill="#CFDFE2"/>
</svg>
