<svg width="32" height="32" viewBox="0 0 32 32" fill="none" xmlns="http://www.w3.org/2000/svg">
<path fill-rule="evenodd" clip-rule="evenodd" d="M18.3879 9.99999L19.0899 11.746L20.9699 11.874L27.3639 12.308L22.4439 16.418L20.9999 17.624L21.4599 19.452L23.0239 25.668L17.5959 22.26L15.9999 21.258L14.4039 22.258L8.9759 25.668L10.5399 19.452L10.9999 17.624L9.5539 16.418L4.6339 12.308L11.0299 11.874L12.9099 11.746L13.6099 9.99799L15.9999 4.04999L18.3879 9.99999ZM2.9419 9.41599L10.8279 8.87999L13.7719 1.54599C14.5799 -0.462007 17.4199 -0.462007 18.2279 1.54599L21.1719 8.87999L29.0579 9.41599C31.2179 9.56199 32.0939 12.264 30.4339 13.652L24.3699 18.72L26.2979 26.384C26.8259 28.484 24.5259 30.152 22.6939 29.004L15.9999 24.8L9.3059 29.002C7.4739 30.152 5.1739 28.482 5.7019 26.384L7.6299 18.72L1.5659 13.652C-0.0941025 12.264 0.783897 9.56199 2.9419 9.41599Z" fill="#CFDFE2"/>
</svg>
