<svg width="16" height="16" viewBox="0 0 16 16" fill="none" xmlns="http://www.w3.org/2000/svg">
<path fill-rule="evenodd" clip-rule="evenodd" d="M7.99995 10.1209L10.6519 12.7729C10.6988 12.8197 10.7623 12.8459 10.8284 12.8459C10.8946 12.8459 10.9581 12.8197 11.0049 12.7729L12.7729 11.0049C12.8197 10.9581 12.8459 10.8946 12.8459 10.8284C12.8459 10.7623 12.8197 10.6988 12.7729 10.6519L10.1209 7.99995L12.7729 5.34795C12.8197 5.30109 12.8459 5.23762 12.8459 5.17145C12.8459 5.10528 12.8197 5.04181 12.7729 4.99495L11.0049 3.22695C10.9581 3.18023 10.8946 3.154 10.8284 3.154C10.7623 3.154 10.6988 3.18023 10.6519 3.22695L7.99995 5.87895L5.34795 3.22695C5.30109 3.18023 5.23762 3.154 5.17145 3.154C5.10528 3.154 5.04181 3.18023 4.99495 3.22695L3.22695 4.99495C3.18023 5.04181 3.154 5.10528 3.154 5.17145C3.154 5.23762 3.18023 5.30109 3.22695 5.34795L5.87895 7.99995L3.22695 10.6519C3.18023 10.6988 3.154 10.7623 3.154 10.8284C3.154 10.8946 3.18023 10.9581 3.22695 11.0049L4.99495 12.7729C5.04181 12.8197 5.10528 12.8459 5.17145 12.8459C5.23762 12.8459 5.30109 12.8197 5.34795 12.7729L7.99995 10.1209ZM7.99995 12.2429L9.59095 13.8329C9.75345 13.9955 9.94638 14.1244 10.1587 14.2123C10.371 14.3003 10.5986 14.3456 10.8284 14.3456C11.0583 14.3456 11.2859 14.3003 11.4982 14.2123C11.7105 14.1244 11.9034 13.9955 12.0659 13.8329L13.8339 12.0659C13.9965 11.9034 14.1254 11.7105 14.2133 11.4982C14.3013 11.2859 14.3466 11.0583 14.3466 10.8284C14.3466 10.5986 14.3013 10.371 14.2133 10.1587C14.1254 9.94638 13.9965 9.75345 13.8339 9.59095L12.2429 7.99995L13.8329 6.40895C13.9955 6.24644 14.1244 6.05351 14.2123 5.84118C14.3003 5.62885 14.3456 5.40128 14.3456 5.17145C14.3456 4.94162 14.3003 4.71404 14.2123 4.50171C14.1244 4.28938 13.9955 4.09645 13.8329 3.93395L12.0659 2.16595C11.9034 2.00343 11.7105 1.87451 11.4982 1.78655C11.2859 1.69859 11.0583 1.65332 10.8284 1.65332C10.5986 1.65332 10.371 1.69859 10.1587 1.78655C9.94638 1.87451 9.75345 2.00343 9.59095 2.16595L7.99995 3.75695L6.40895 2.16695C6.24644 2.00443 6.05351 1.87551 5.84118 1.78755C5.62885 1.69959 5.40128 1.65432 5.17145 1.65432C4.94162 1.65432 4.71404 1.69959 4.50171 1.78755C4.28938 1.87551 4.09645 2.00443 3.93395 2.16695L2.16595 3.93295C2.00343 4.09545 1.87451 4.28838 1.78655 4.50071C1.69859 4.71304 1.65332 4.94062 1.65332 5.17045C1.65332 5.40027 1.69859 5.62785 1.78655 5.84018C1.87451 6.05252 2.00343 6.24544 2.16595 6.40795L3.75695 7.99995L2.16695 9.59095C2.00443 9.75345 1.87551 9.94638 1.78755 10.1587C1.69959 10.371 1.65432 10.5986 1.65432 10.8284C1.65432 11.0583 1.69959 11.2859 1.78755 11.4982C1.87551 11.7105 2.00443 11.9034 2.16695 12.0659L3.93395 13.8339C4.09645 13.9965 4.28938 14.1254 4.50171 14.2133C4.71404 14.3013 4.94162 14.3466 5.17145 14.3466C5.40128 14.3466 5.62885 14.3013 5.84118 14.2133C6.05351 14.1254 6.24644 13.9965 6.40895 13.8339L7.99995 12.2429Z" fill="#CFDFE2"/>
</svg>
